<svg width="1080" height="335" viewBox="0 0 1080 335" fill="none" xmlns="http://www.w3.org/2000/svg">
<g clip-path="url(#clip0_1466_29298)">
<rect width="1080" height="334.478" transform="translate(0 0.400391)" fill="#E4E0F5"/>
<path d="M459.432 160.419C492.91 160.419 520.05 133.281 520.05 99.8035C520.05 66.3262 492.91 39.1875 459.432 39.1875C425.953 39.1875 398.813 66.3262 398.813 99.8035C398.813 133.281 425.953 160.419 459.432 160.419Z" fill="#FFED8E" fill-opacity="0.25"/>
<path d="M1099.59 160.419C1133.07 160.419 1160.21 133.281 1160.21 99.8035C1160.21 66.3262 1133.07 39.1875 1099.59 39.1875C1066.12 39.1875 1038.98 66.3262 1038.98 99.8035C1038.98 133.281 1066.12 160.419 1099.59 160.419Z" fill="#FFED8E" fill-opacity="0.25"/>
<path d="M486.583 302.992C496.854 297.874 505.785 289.784 511.958 279.093C528.696 250.102 518.762 213.027 489.77 196.29C460.778 179.552 423.702 189.486 406.964 218.477C390.226 247.467 400.16 284.542 429.152 301.28L457.375 252.397L486.583 302.992Z" fill="#11BBB0" fill-opacity="0.08"/>
<path d="M1126.74 302.99C1137.01 297.872 1145.94 289.782 1152.11 279.091C1168.85 250.1 1158.91 213.026 1129.92 196.288C1100.93 179.55 1063.86 189.484 1047.12 218.475C1030.38 247.466 1040.31 284.54 1069.31 301.278L1097.53 252.395L1126.74 302.99Z" fill="#11BBB0" fill-opacity="0.08"/>
<path d="M332.815 49.212C323.247 42.8766 311.775 39.1875 299.43 39.1875C265.953 39.1875 238.812 66.3278 238.812 99.8035C238.812 133.279 265.953 160.419 299.43 160.419C332.906 160.419 360.048 133.279 360.048 99.8035H303.601L332.815 49.212Z" fill="#11BBB0" fill-opacity="0.08"/>
<path d="M972.923 49.212C963.354 42.8766 951.882 39.1875 939.537 39.1875C906.06 39.1875 878.919 66.3278 878.919 99.8035C878.919 133.279 906.06 160.419 939.537 160.419C973.014 160.419 1000.16 133.279 1000.16 99.8035H943.709L972.923 49.212Z" fill="#11BBB0" fill-opacity="0.08"/>
<path d="M299.43 309.377C332.908 309.377 360.048 282.238 360.048 248.761C360.048 215.283 332.908 188.145 299.43 188.145C265.951 188.145 238.812 215.283 238.812 248.761C238.812 282.238 265.951 309.377 299.43 309.377Z" fill="#FFED8E" fill-opacity="0.25"/>
<path d="M939.537 309.377C973.015 309.377 1000.16 282.238 1000.16 248.761C1000.16 215.283 973.015 188.145 939.537 188.145C906.059 188.145 878.919 215.283 878.919 248.761C878.919 282.238 906.059 309.377 939.537 309.377Z" fill="#FFED8E" fill-opacity="0.25"/>
<path d="M139.379 160.419C172.857 160.419 199.997 133.281 199.997 99.8035C199.997 66.3262 172.857 39.1875 139.379 39.1875C105.9 39.1875 78.7607 66.3262 78.7607 99.8035C78.7607 133.281 105.9 160.419 139.379 160.419Z" fill="#FFED8E" fill-opacity="0.25"/>
<path d="M779.538 160.419C813.016 160.419 840.156 133.281 840.156 99.8035C840.156 66.3262 813.016 39.1875 779.538 39.1875C746.06 39.1875 718.92 66.3262 718.92 99.8035C718.92 133.281 746.06 160.419 779.538 160.419Z" fill="#FFED8E" fill-opacity="0.25"/>
<path d="M166.53 302.99C176.801 297.872 185.732 289.782 191.905 279.091C208.643 250.1 198.709 213.026 169.717 196.288C140.725 179.55 103.65 189.484 86.9112 218.475C70.1728 247.466 80.1072 284.54 109.099 301.278L137.322 252.395L166.53 302.99Z" fill="#11BBB0" fill-opacity="0.08"/>
<path d="M806.639 302.99C816.91 297.872 825.841 289.782 832.013 279.091C848.752 250.1 838.817 213.026 809.825 196.288C780.834 179.55 743.758 189.484 727.02 218.475C710.281 247.466 720.216 284.54 749.207 301.278L777.431 252.395L806.639 302.99Z" fill="#11BBB0" fill-opacity="0.08"/>
<path d="M12.7175 49.212C3.14899 42.8766 -8.32281 39.1875 -20.668 39.1875C-54.1449 39.1875 -81.2861 66.3278 -81.2861 99.8035C-81.2861 133.279 -54.1449 160.419 -20.668 160.419C12.8088 160.419 39.95 133.279 39.95 99.8035H-16.4965L12.7175 49.212Z" fill="#11BBB0" fill-opacity="0.08"/>
<path d="M652.87 49.212C643.301 42.8766 631.83 39.1875 619.484 39.1875C586.007 39.1875 558.866 66.3278 558.866 99.8035C558.866 133.279 586.007 160.419 619.484 160.419C652.961 160.419 680.102 133.279 680.102 99.8035H623.656L652.87 49.212Z" fill="#11BBB0" fill-opacity="0.08"/>
<path d="M-20.668 309.377C12.8104 309.377 39.95 282.238 39.95 248.761C39.95 215.283 12.8104 188.145 -20.668 188.145C-54.1465 188.145 -81.2861 215.283 -81.2861 248.761C-81.2861 282.238 -54.1465 309.377 -20.668 309.377Z" fill="#FFED8E" fill-opacity="0.25"/>
<path d="M619.507 309.382C652.985 309.382 680.125 282.244 680.125 248.766C680.125 215.289 652.985 188.15 619.507 188.15C586.028 188.15 558.889 215.289 558.889 248.766C558.889 282.244 586.028 309.382 619.507 309.382Z" fill="#FFED8E" fill-opacity="0.25"/>
</g>
<defs>
<clipPath id="clip0_1466_29298">
<rect width="1080" height="334.478" fill="white" transform="translate(0 0.400391)"/>
</clipPath>
</defs>
</svg>
